Meie lemmiktegelaste elu on veerenud vahepealsetel aastatel vaikselt oma rada, kuid vaikusest lugu pidav mammut Manny (Lembit Ulfsak) on pidanud viimasel ajal tegemist tegema oma murdeikka jõudnud tütrekese Virsiku kasvuraskustega. Kuid enne, kui isa ja tütar jõuavad hakata teineteisest üha kaugemale triivima, sekkub taas kord kõikvõimas loodus - sedapuhku kolossaalse maanihke näol, mille tulemusena tekkisid siia ilma erinevad kontinendid. Nimetatud maanihke tulemusena leiab Manny end järsku jääkamakalt, mis kiires tempos maismaast ning ühtlasi ka tema perekonnast kaugeneb. Õnneks on samale jääpangale lõksu jäänud ka tema vana sõber Diego (Ivo Uukkivi) ning muidugi ka aastatega üha laisemaks jääv laiskloom Sid (Anu Lamp) ühes oma vanaemaga, kelle Sidi perekond ühel hetkel kohale toimetas ja seejärel sedamaid hülgas.


Video
ID                                       : 0
Format                                   : MPEG-4 Visual
Format profile                           : Advanced Simple@L5
Format settings, BVOP                    : 1
Format settings, QPel                    : No
Format settings, GMC                     : No warppoints
Format settings, Matrix                  : Default (MPEG)
Codec ID                                 : XVID
Codec ID/Hint                            : XviD
Duration                                 : 1h 24mn
Bit rate                                 : 1 718 Kbps
Width                                    : 720 pixels
Height                                   : 304 pixels
Display aspect ratio                     : 2.35:1
Frame rate                               : 25.000 fps
Color space                              : YUV
Chroma subsampling                       : 4:2:0
Bit depth                                : 8 bits
Scan type                                : Progressive
Compression mode                         : Lossy
Bits/(Pixel*Frame)                       : 0.314
Stream size                              : 1.01 GiB (81%)
Writing library                          : XviD 73

Audio
ID                                       : 1
Format                                   : AC-3
Format/Info                              : Audio Coding 3
Mode extension                           : CM (complete main)
Format settings, Endianness              : Big
Codec ID                                 : 2000
Duration                                 : 1h 24mn
Bit rate mode                            : Constant
Bit rate                                 : 384 Kbps
Channel(s)                               : 6 channels
Channel positions                        : Front: L C R, Side: L R, LFE
Sampling rate                            : 48.0 KHz
Bit depth                                : 16 bits
Compression mode                         : Lossy
Stream size                              : 231 MiB (18%)
Alignment                                : Split accross interleaves
Interleave, duration                     : 40 ms (1.00 video frame)
Interleave, preload duration             : 500 ms
Language                                 : Estonian only